<svg width="1841" height="2508" viewBox="0 0 1841 2508" fill="none" xmlns="http://www.w3.org/2000/svg">
<path fill-rule="evenodd" clip-rule="evenodd" d="M1174.7 505.039L1200.9 554.915V1676.33L1174.7 1726.33V2432.38L1214.01 2507.3V2103.27V1651.36V579.841V404.105V0L1174.7 74.9746V505.039ZM1044.56 855.984L1018.78 806.159V232.183L1057.43 157.248V404.629V880.921V1651.22V2102.9V2350.06L1018.78 2275.12V1726.16L1044.56 1676.18V855.984ZM966.15 1005.41L939.49 955.576V310.155L979.468 235.206V404.488V1030.35V1651.32V2103.09V2272.1L939.49 2197.15V1726.27L966.15 1676.29V1005.41ZM652.551 1604.27L626.327 1554.39V623.303L665.639 548.369V753.83V1629.2V1651.32V1753.4V1958.94L626.327 1884.12V1726.26L652.551 1676.3V1604.27ZM861.532 1104.77L887.732 1154.64V1676.46L861.532 1726.38V2119.42L900.844 2194.14V2103.4V1651.51V1179.57V404.326V313.83L861.532 388.702V1104.77ZM809.33 1304.01L783.574 1254.13V466.668L822.22 391.787V753.96V1328.94V1651.4V1753.47V2115.52L783.574 2040.54V1726.25L809.33 1676.35V1304.01ZM704.95 1404.82L731.15 1454.65V1676.02L704.95 1725.71V1961.94L744.262 2036.89V1753.21V1651.18V1479.6V754.041V470.411L704.95 544.947V1404.82ZM1122.94 704.794L1096.74 654.926V153.39L1136.05 78.624V404.158V729.716V1651.21V2103.05V2428.68L1096.74 2353.84V1725.97L1122.94 1676.13V704.794ZM1331.94 1626.29L1370.59 1701.08V626.326L1331.94 701.285V1626.29ZM1292.63 1701.08L1253.32 1626.3V551.361L1292.63 476.408V1701.08ZM1723.06 1626.36L1762.38 1701.08V1376.59L1723.06 1451.47V1626.36ZM1449.21 1701.08L1409.9 1626.28V851.216L1449.21 776.245V1701.08ZM1645.11 1626.26L1683.75 1701.08V1225.33L1645.11 1300.32V1626.26ZM1605.79 1701.08L1567.15 1626.27V1151.04L1605.79 1076.08V1701.08ZM1487.86 1626.27L1527.84 1701.08V926.164L1487.86 1001.14V1626.27ZM1801.69 1626.33V1601.42L1841 1526.5V1701.08L1801.69 1626.33ZM548.369 1806.03L587.681 1880.98V626.326L548.369 701.32V1806.03ZM273.851 1567.15L235.206 1492.14V1015.17L273.851 940.156V1567.15ZM470.411 1726.78L509.057 1801.69V705.617L470.411 780.52V1726.78ZM431.099 1723.73L391.121 1648.6V858.553L431.099 783.574V1723.73ZM313.163 1570.87L352.475 1645.77V861.532L313.163 936.504V1570.87ZM195.894 1488.52L157.248 1413.4V1092.92L195.894 1018.78V1488.52ZM77.9575 1335.5L117.27 1410.57V1096.74L77.9575 1171.8V1335.5ZM39.312 1331.94L0 1257.24V1250.28L39.312 1175.36V1331.94Z" fill="#00C0E8" fill-opacity="0.2"/>
</svg>
